<svg width="40" height="10" viewBox="0 0 40 10" fill="none" xmlns="http://www.w3.org/2000/svg">
<path d="M8.76 4.068H4.884V5.916H6.768V6.84C6.54 6.996 5.964 7.26 5.124 7.26C3.528 7.26 2.628 6.264 2.628 4.8C2.628 3.36 3.504 2.388 5.148 2.388C5.928 2.388 6.576 2.568 7.284 3.108L8.412 1.644C7.596 0.792 6.348 0.456 5.172 0.456C2.448 0.456 0.408 2.244 0.408 4.824C0.408 7.368 2.412 9.144 5.028 9.144C7.032 9.144 8.328 8.28 8.76 7.944V4.068ZM12.2321 0.599999H10.0721V9H12.2321V0.599999ZM17.7609 0.599999H13.6689V9H15.8289V6.66H17.5569C19.7049 6.66 20.8809 5.196 20.8809 3.648C20.8809 1.824 19.7649 0.599999 17.7609 0.599999ZM17.4849 4.848H15.8289V2.484H17.5089C18.3249 2.484 18.6849 2.832 18.6849 3.648C18.6849 4.176 18.4329 4.848 17.4849 4.848ZM27.8584 0.599999V3.852H24.1024V0.599999H21.9424V9H24.1024V5.748H27.8584V9H30.0184V0.599999H27.8584ZM39.6668 0.599999H37.2908L35.4308 3.36L35.2028 3.84L34.9628 3.36L33.0908 0.599999H30.6668L34.0868 5.628V9H36.2468V5.604L39.6668 0.599999Z" fill="white"/>
</svg>
